# xmcd
#
# Track frame offsets:
#	150
#	12617
#	27700
#	40345
#	54735
#	66002
#	81520
#	94295
#	111032
#	125192
#	139495
#	152442
#
# Disc length: 2220 seconds
#
# Revision: 0
# Processed by: cddbd v1.5.2PL0 Copyright (c) Steve Scherf et al.
# Submitted via: EasyCDDAExtractor 16.0.6.1
#
DISCID=b308aa0c
DTITLE=Βοσκόπουλος Τόλης - Σμυρνέϊκα και λαϊκά-Τ. Βοσκόπουλος
DYEAR=1976
DGENRE=Ποικίλη
TTITLE0=Αχ Βαγγελίτσα μου [Τ. Βοσκόπουλου-Μίμη Θειόπουλου]
TTITLE1=Πριν χαθεί το όνειρό μας [Τ. Βοσκόπουλου-Μίμη Θειόπουλου]
TTITLE2=Δεν θα κοιμηθείς [Τ. Βοσκόπουλου-Μίμη Θειόπουλου]
TTITLE3=Παίξε φίλε το σαντούρι [Τ. Βοσκόπουλου-Μίμη Θειόπουλου]
TTITLE4=Νά 'τανε λέει μαχαραγιάς [Τ. Βοσκόπουλου-Μίμη Θειόπουλου]
TTITLE5=Ο χαμαμτζής [Τ. Βοσκόπουλου-Μίμη Θειόπουλου]
TTITLE6=Ο αραμπατζής [Βασ. Βασιλειάδη-Τ. Κωλέττη]
TTITLE7=Το βαρυχείμωνο [Βασ. Βασιλειάδη-Τ. Κωλέττη]
TTITLE8=Άϊντε για δυό μάτια [Βασ. Βασιλειάδη-Τ. Κωλέττη]
TTITLE9=Τα μαργιόλικά σου μάτια [Βασ. Βασιλειάδη-Τ. Κωλέττη]
TTITLE10=Στον καφενέ καθόμουνα [Βασ. Βασιλειάδη-Τ. Κωλέττη]
TTITLE11=Νά 'ταν η αγκαλιά σου φυλακή [Βασ. Βασιλειάδη-Τ. Κωλέττη]
EXTD=
EXTT0=
EXTT1=
EXTT2=
EXTT3=
EXTT4=
EXTT5=
EXTT6=
EXTT7=
EXTT8=
EXTT9=
EXTT10=
EXTT11=
PLAYORDER=
